<svg width="76" height="26" viewBox="0 0 76 26" fill="none" xmlns="http://www.w3.org/2000/svg">
<path d="M0.227503 2.92183H9.96461C18.3367 2.92183 21.6127 7.83589 21.6127 13.0381C21.6127 18.3313 17.4115 23.0482 9.4186 23.0482H0.242669C0.0758342 23.0482 0.0151668 22.9421 0.0151668 22.8511C0.0151668 22.7449 0.121335 22.6539 0.273003 22.6539H1.98686C2.51769 22.6539 2.86653 22.3354 2.86653 21.7439V4.25652C2.86653 3.81668 2.6542 3.33134 1.95652 3.33134H0.212336C0.0758342 3.33134 0 3.24034 0 3.13417C0 3.04317 0.0303337 2.92183 0.227503 2.92183ZM6.3094 22.1079C6.3094 22.5477 6.50657 22.6842 6.79474 22.6842H9.3731C15.728 22.6842 18.0334 17.8157 18.0334 12.9319C18.0334 8.04822 15.5915 3.31617 10.2224 3.31617H6.71891C6.3549 3.31617 6.32457 3.61951 6.32457 3.75601L6.3094 22.1079ZM22.5834 2.92183C22.4317 2.92183 22.2952 2.9825 22.2952 3.10384C22.2952 3.22517 22.3711 3.301 22.5076 3.301H24.2214C24.6158 3.301 24.9949 3.57401 24.9949 4.33235V21.759C24.9949 22.123 24.7219 22.6691 24.2366 22.6691H22.5379C22.3407 22.6691 22.3256 22.8207 22.3256 22.8814C22.3256 22.9421 22.3104 23.0482 22.5379 23.0482H30.7887C30.91 23.0482 31.0768 23.0331 31.0768 22.9117C31.0768 22.7904 31.0465 22.6691 30.8342 22.6691H29.2417C29.0142 22.6691 28.3923 22.5326 28.3923 21.8349V4.15035C28.3923 3.64984 28.7108 3.31617 29.2872 3.31617H30.8493C30.9858 3.31617 31.0617 3.24034 31.0617 3.13417C31.0617 3.028 30.9858 2.937 30.8038 2.937H22.5834V2.92183ZM35.4752 12.9926C35.4752 7.42638 37.9626 2.92183 42.634 2.92183C47.2144 2.92183 49.7927 7.42638 49.7927 12.9926C49.7927 18.5588 47.4419 23.0634 42.634 23.0634C37.9778 23.0786 35.4752 18.5588 35.4752 12.9926ZM42.634 23.4881C49.2771 23.4881 53.4631 18.7863 53.4631 13.0078C53.4631 7.22921 49.3225 2.51233 42.634 2.51233C35.9606 2.51233 31.8049 7.21405 31.8049 12.9926C31.8049 18.7712 36.1274 23.4881 42.634 23.4881ZM74.6967 22.9269C72.088 23.1999 70.6471 18.9228 69.3276 16.8905C68.3418 15.389 66.2487 13.8571 64.1861 13.5538C67.5834 13.3566 71.3903 12.2646 71.3903 8.41223C71.3903 5.28786 69.4641 2.92183 62.3964 2.92183H54.2518C54.1456 2.92183 54.0394 2.9825 54.0394 3.10384C54.0394 3.22517 54.1456 3.301 54.2518 3.301H56.1173C56.5116 3.301 56.8908 3.57401 56.8908 4.33235V21.759C56.8908 22.123 56.6178 22.6691 56.1325 22.6691H54.2973C54.1456 22.6691 54.0849 22.7904 54.0849 22.8511C54.0849 22.9117 54.1456 23.0482 54.2973 23.0482H62.9424C63.0637 23.0482 63.1699 22.9876 63.1699 22.8662C63.1699 22.7449 63.094 22.6691 62.9272 22.6691H61.183C60.9555 22.6691 60.3337 22.5174 60.3337 21.8349V13.5993H61.2285C65.5056 13.5993 65.8241 18.2403 67.9474 20.8945C69.7674 23.1696 72.1486 23.4577 73.4985 23.4577C74.0748 23.4577 74.4692 23.4426 74.8332 23.3516C75.0607 23.2757 75.1062 22.8814 74.6967 22.9269ZM61.1982 3.301H62.457C64.6107 3.301 68.0991 4.15035 68.0991 8.21506C68.0991 11.9461 65.0051 13.2049 62.1385 13.2049H60.3033V4.15035C60.3033 3.63467 60.6218 3.301 61.1982 3.301Z" fill="black"/>
</svg>
